<?xml version="1.0" encoding="UTF-8"?>
<svg id="Layer_1" data-name="Layer 1" xmlns="http://www.w3.org/2000/svg" viewBox="0 0 2000 2000">
  <defs>
    <style>
      .cls-1 {
        fill: #fff;
      }

      .cls-2 {
        fill: none;
      }
    </style>
  </defs>
  <g>
    <path class="cls-2" d="M1702.1,1309.28c8.65-17.96,16.71-35.43,24.09-52.87-36.71-18.12-71.89-44.53-117.42-63.66-66.52-27.95-139.36,22.19-166.96,84.91-44.83,101.9,6.03,239.88-85.59,310.76-83.7,64.75-189.78,63.56-187.88,107.61,2.2,51.05,104.46,48.66,195.16-7.22,25.17-15.51,52.63-30.17,78.11-38.6,106.35-88.09,194.35-203.6,260.49-340.94Z"/>
    <path class="cls-2" d="M1818.95,1277.59c-20.42,53.01-45.26,104.75-74.33,154.98-57.15,98.75-124.87,186.9-209.32,259.82,2.44,9.23,3.38,18.17,1.65,24.35l-46.24,164.7c-3.79,13.5,2.73,43.77,14.31,45.39,22.19,3.1,52.37-15.13,62.63-34.52l125.96-237.99c11.85-22.4,56.42-21.5,77.43-30.73,104.99-46.14,156.29-162.55,132.18-270.29-9.91-44.26-40.83-71.5-84.27-75.71Z"/>
    <path d="M1496.64,1679.16c-6.23-4.05-26.13-4.18-33.29-.46l-115.99,60.31c-29,15.08-62.86,24.37-96.15,30.21-138.24,62.19-296.45,87.29-469.93,67.74-315.22-35.51-553.56-157.2-650.3-465.71,333.38,182.66,692.81,161.86,982.57-82.34,98.59-87.06,185.42-185.7,254.86-293.16-7.39-6-16.33-10.44-23.42-16.75-2-2-6,0-9-1-1-1-1-5-2-7-13-13-23-27-40-36-2.91-.97-3-7.59-4.84-10.72-34.4,53.47-72.85,104.84-114.41,155.19-259.96,314.99-700.47,408.25-1025.45,152.1-22.79-17.96-42.11-39.44-69.72-45.54-38.23-8.44-55.74,22.45-61.93,40.02-11.22,31.82-7.24,76.71-.08,116.73,47.97,268.37,237.43,469.93,495.72,544.72,164.8,47.72,335.39,61.5,507.29,38.71,153.12-20.3,291.31-81.3,419.95-163.22,24.26-15.45,47.33-31.96,69.31-49.46-.35-12.11-6.75-30.19-13.18-34.37Z"/>
    <path d="M1833.28,1238.03c47.69-140.37,64.67-289.03,47.12-441.71-32.9-286.2-157.63-500.85-356.94-703.12-41.38-42-112.19-90.46-143.3-68.34-9.44,6.71-17.88,36.84-13.05,47.94l50.39,115.67c9.04,20.75,16.37,42.22,21.74,64.22,13.68,56.06,18.95,113.27,17.4,170.56,2.39,1.02,4.81,2.02,7.37,2.75,26,7,56,9,76,30,.97.97,2.66,1,4.59.88,1.97-64.85-2.71-130.9-14.8-197.79,44.89,43.55,76.31,84.35,105.2,133.99,128.54,220.9,174.91,479.88,131.04,731.65-5.22,29.97-12.55,57.51-21.63,84.16,12.03,6.5,22.7,11.83,31.75,14.83,18.97,6.3,38.25,9.48,57.13,14.3Z"/>
    <path d="M1879.78,1256.6c-14.92-9.27-30.56-14.5-46.5-18.57-18.87-4.82-38.16-8-57.13-14.3-9.05-3-19.72-8.34-31.75-14.83-64.74-34.97-168.81-103.71-271.66-25.22-33.55,25.61-76.89,74.22-80.94,116.78l-15.63,164.19c-5.39,56.57-38.23,107.75-91.66,127.53l-112.07,41.49c-13.1,4.85-42.32,22.65-44.4,36.53-9.17,61.17,45.53,110.37,105.89,101.76,5.72-.82,11.49-1.74,17.28-2.75,33.29-5.83,67.15-15.13,96.15-30.21l115.99-60.31c7.15-3.72,27.06-3.59,33.29.46,6.44,4.19,12.83,22.27,13.18,34.37.07,2.55-.11,4.85-.63,6.68l-45.22,159.5c-14.28,50.38-2.78,92.43,39.45,117.08l38.99-.07,57.06-38.01,108.5-204.27c19.27-36.27,48.28-59.15,86.85-74.13,69.51-26.98,117.14-85.61,154.49-147.14,61.05-100.58,28.58-215.62-69.54-276.59ZM1771.04,1623.59c-21.01,9.23-65.58,8.34-77.43,30.73l-125.96,237.99c-10.26,19.39-40.44,37.62-62.63,34.52-11.58-1.62-18.1-31.9-14.31-45.39l46.24-164.7c1.73-6.17.78-15.11-1.65-24.35-3.73-14.14-10.96-28.97-17.47-35.63-17.39-17.79-45.34-16.76-76.23-6.55-25.47,8.42-52.94,23.09-78.11,38.6-90.7,55.88-192.96,58.27-195.16,7.22-1.9-44.06,104.18-42.86,187.88-107.61,91.62-70.88,40.76-208.86,85.59-310.76,27.6-62.73,100.44-112.86,166.96-84.91,45.53,19.13,80.71,45.54,117.42,63.66,24.81,12.25,50.32,20.71,80.2,20.6,4.3-.02,8.48.19,12.56.59,43.44,4.21,74.36,31.45,84.27,75.71,24.11,107.74-27.19,224.16-132.18,270.29Z"/>
  </g>
  <g>
    <path class="cls-1" d="M331.19,1242.11l53.42-801.29c0-12.17,468.66-454.73,859.35-407.79,243.72,29.28,303.38,245.14,293.99,490.42l-219.67,275.63c19.47,0,0,330,0,349.47h-133.94c0,19.47-153.88,249.16-173.35,249.16l-157.23,132.39c-19.47,0-522.58-268.53-522.58-288ZM709.3,834.63l-18.9-36.12c-5.42-10.35-5.35-22.72.17-33.01l18.33-34.15c16.49-30.73-16.88-64.18-47.65-47.77l-35.5,18.93c-10.44,5.57-22.97,5.53-33.37-.11l-33.54-18.16c-30.73-16.64-64.33,16.76-47.88,47.59l18.25,34.21c5.52,10.35,5.53,22.77.03,33.13l-19.21,36.15c-16.25,30.59,16.74,63.81,47.44,47.79l36.89-19.26c10.28-5.36,22.53-5.33,32.78.08l34.46,18.21c30.6,16.17,63.75-16.85,47.7-47.51Z"/>
    <path d="M448.44,1371.07c-84.76-65.26-192.52-139.71-135.19-253.91,26.54-52.86,57.67-106.96,106.53-145.69-43.88,95.23-64.82,200.15,12.72,275.36,80.24,77.83,174.57,140.66,271.3,196.85,45.18,26.25,95.87,44.47,148.8,39.37,57.89-5.58,69.04-132.4,185.6-129.92l-31.82-98.32,89.22-14.82,18-88.99c54.07-47.53,137.48-6.26,167.9-32.01,10.25-8.67,17.6-38.61,15.83-53.67l-26.38-224.54c-12.02-102.31,151.46-158.1,187.75-406.64,14.87-101.87-1.57-193.91-54.77-284.47-17.31-29.46-51.56-86.53-34.55-113.34,30.21-41.26,65.64,3.39,80.34,27l41.43,66.58c34.86,56.02,50.46,114.94,58.23,178.15,20.29,165.11-19.63,320.64-136.8,444.99-32.21,34.18-56.03,71.94-52.67,121.77l15.07,223.81c1.67,24.77-17.15,60.09-31.34,74.44-41.91,42.37-96.21,12.28-156.07,23.95l-13.09,107.9c-20.56,9.52-56.32,10.11-82.07,9.29,20.91,29.59,15.17,99.76-26.54,107.11l-73.21,12.9c-20.53,85.25-85.69,137.79-172.47,130.21-140.08-12.23-260.41-107.65-371.73-193.36Z"/>
    <path d="M761.91,935.15l-151.14-79.86-154.08,80.44,81.35-153.12-82.24-154.15,153.23,82.97,154.87-82.59-82.17,153.13,80.18,153.19ZM549.3,842.09l62.09-27.86,60.43,29.81-31.53-60.69,30.57-61.93-61.85,30.66-59.83-28.15,30.47,59.09-30.35,59.07Z"/>
    <polygon class="cls-1" points="549.3 842.09 579.65 783.02 549.19 723.93 609.01 752.08 670.87 721.42 640.29 783.35 671.82 844.04 611.39 814.23 549.3 842.09"/>
  </g>
</svg>