<?xml version="1.0" encoding="UTF-8"?>
<svg id="Layer_1" data-name="Layer 1" xmlns="http://www.w3.org/2000/svg" viewBox="0 0 2000 2000">
  <path d="M448.44,1547.58c-84.76-65.26-192.52-139.71-135.19-253.91,26.54-52.86,57.67-106.96,106.53-145.69-43.88,95.23-64.82,200.15,12.72,275.36,80.24,77.83,174.57,140.66,271.3,196.85,45.18,26.25,95.87,44.47,148.8,39.37,57.89-5.58,69.04-132.4,185.6-129.92l-31.82-98.32,89.22-14.82,18-88.99c54.07-47.53,137.48-6.26,167.9-32.01,10.25-8.67,17.6-38.61,15.83-53.67l-26.38-224.54c-12.02-102.31,151.46-158.1,187.75-406.64,14.87-101.87-1.57-193.91-54.77-284.47-17.31-29.46-51.56-86.53-34.55-113.34,30.21-41.26,65.64,3.39,80.34,27l41.43,66.58c34.86,56.02,50.46,114.94,58.23,178.15,20.29,165.11-19.63,320.64-136.8,444.99-32.21,34.18-56.03,71.94-52.67,121.77l15.07,223.81c1.67,24.77-17.15,60.09-31.34,74.44-41.91,42.37-96.21,12.28-156.07,23.95l-13.09,107.9c-20.56,9.52-56.32,10.11-82.07,9.29,20.91,29.59,15.17,99.76-26.54,107.11l-73.21,12.9c-20.53,85.25-85.69,137.79-172.47,130.21-140.08-12.23-260.41-107.65-371.73-193.36Z"/>
  <path d="M761.91,1111.67l-151.14-79.86-154.08,80.44,81.35-153.12-82.24-154.15,153.23,82.97,154.87-82.59-82.17,153.13,80.18,153.19ZM549.3,1018.61l62.09-27.86,60.43,29.81-31.53-60.69,30.57-61.93-61.85,30.66-59.83-28.15,30.47,59.09-30.35,59.07Z"/>
</svg>